# xmcd CD database file
#
# Track frame offsets:
#	150
#	37715
#	41591
#	56351
#	71999
#	86102
#	101398
#	118961
#	138686
#	151585
#	185056
#	202183
#	207342
#	232635
#	245926
#	263925
#	288772
#	311210
#	326660
#	343230
#
# Disc length: 4918 seconds
#
# Revision: 0
# Processed by: cddbd v1.5.1PL2 Copyright (c) Steve Scherf et al.
# Submitted via: Feurio! 1.68 - http://www.feurio.com
#
DISCID=34133414
DTITLE=Steamhammer - Steamhammer Steamhammer Steamhammer Steamhammer
DYEAR=1900
DGENRE=Bluesrock
TTITLE0=Louisiana Blues (live at Beatclub Bremen)
TTITLE1=Water (part 1)
TTITLE2=Junior's Wailing
TTITLE3=Lost You Too
TTITLE4=She Is The Fire
TTITLE5=You'll Never Know
TTITLE6=Even The Clock
TTITLE7=Down The Highway
TTITLE8=On Your Road
TTITLE9=Twenty Four Hours
TTITLE10=When All Your Friends Are Gone
TTITLE11=Water (part 2)
TTITLE12=I Wouldn't Have Thought
TTITLE13=6/8 for Amiran
TTITLE14=Autumn Song
TTITLE15=Mountains
TTITLE16=Passing through
TTITLE17=You'll Never Know
TTITLE18=Walking Down The Road
TTITLE19=Hold That Train
EXTD=
EXTT0=
EXTT1=
EXTT2=
EXTT3=
EXTT4=
EXTT5=
EXTT6=
EXTT7=
EXTT8=
EXTT9=
EXTT10=
EXTT11=
EXTT12=
EXTT13=
EXTT14=
EXTT15=
EXTT16=
EXTT17=
EXTT18=
EXTT19=
PLAYORDER=
